<svg xmlns="http://www.w3.org/2000/svg" version="1.1" xmlns:xlink="http://www.w3.org/1999/xlink" xmlns:svgjs="http://svgjs.com/svgjs" width="1440" height="560" preserveAspectRatio="none" viewBox="0 0 1440 560"><g mask="url(&quot;#SvgjsMask1011&quot;)" fill="none"><path d="M1410.032,239.758C1445.829,240.114,1476.168,215.894,1493.767,184.72C1511.046,154.114,1516.129,115.619,1496.618,86.385C1478.622,59.422,1442.449,59.135,1410.032,59.256C1377.924,59.376,1342.12,60.148,1324.559,87.028C1305.768,115.79,1312.353,153.103,1329.131,183.084C1346.365,213.88,1374.744,239.407,1410.032,239.758" fill="rgba(28, 83, 142, 0.4)" class="triangle-float2"></path><path d="M923.402,169.065C957.212,169.002,989.828,152.312,1005.795,122.51C1021.015,94.101,1011.955,61.022,996.412,32.789C980.136,3.225,957.103,-25.375,923.402,-27.149C887.133,-29.058,853.318,-7.452,835.743,24.331C818.696,55.159,822.223,92.689,840.472,122.821C858.046,151.837,889.479,169.129,923.402,169.065" fill="rgba(28, 83, 142, 0.4)" class="triangle-float1"></path><path d="M621.986,506.573C673.286,508.113,732.549,507.002,758.85,462.93C785.523,418.234,760.28,364.164,733.666,319.433C707.857,276.055,672.429,234.69,621.986,232.898C568.963,231.015,521.411,264.589,495.664,310.979C470.668,356.015,470.705,411.85,498.65,455.119C524.553,495.227,574.262,505.141,621.986,506.573" fill="rgba(28, 83, 142, 0.4)" class="triangle-float1"></path><path d="M1336.2461601782322 470.0553400030889L1342.1807307631993 385.1870266905731 1257.3124174506836 379.2524561056059 1251.3778468657165 464.1207694181217z" fill="rgba(28, 83, 142, 0.4)" class="triangle-float1"></path><path d="M1334.6426815040934 313.59012844996016L1439.5748027255793 225.71190127999182 1327.8759172941236 182.8347164093146z" fill="rgba(28, 83, 142, 0.4)" class="triangle-float1"></path><path d="M777.9413336095131 456.516532261732L729.6409874846836 582.3432357724511 855.4676909954026 630.6435818972806 903.7680371202322 504.81687838656154z" fill="rgba(28, 83, 142, 0.4)" class="triangle-float3"></path><path d="M1120.2253476720691 340.4364457033074L1216.5345334112967 262.4468048416686 1138.544892549658 166.13761910244096 1042.2357068104304 244.12725996407974z" fill="rgba(28, 83, 142, 0.4)" class="triangle-float2"></path><path d="M1396.1831442443743 241.28396080839673L1318.9576755356818 336.4638593209131 1424.473881869691 355.06921339960036z" fill="rgba(28, 83, 142, 0.4)" class="triangle-float2"></path><path d="M486.46943759065925 554.0780032870371L586.5111433755743 517.6658001961109 550.0989402846482 417.624094411196 450.05723449973317 454.03629750212207z" fill="rgba(28, 83, 142, 0.4)" class="triangle-float2"></path></g><defs><mask id="SvgjsMask1011"><rect width="1440" height="560" fill="#ffffff"></rect></mask><style>
            @keyframes float1 {
                0%{transform: translate(0, 0)}
                50%{transform: translate(-10px, 0)}
                100%{transform: translate(0, 0)}
            }

            .triangle-float1 {
                animation: float1 5s infinite;
            }

            @keyframes float2 {
                0%{transform: translate(0, 0)}
                50%{transform: translate(-5px, -5px)}
                100%{transform: translate(0, 0)}
            }

            .triangle-float2 {
                animation: float2 4s infinite;
            }

            @keyframes float3 {
                0%{transform: translate(0, 0)}
                50%{transform: translate(0, -10px)}
                100%{transform: translate(0, 0)}
            }

            .triangle-float3 {
                animation: float3 6s infinite;
            }
        </style></defs></svg>